<svg width="60" height="60" viewBox="0 0 60 60" fill="none" xmlns="http://www.w3.org/2000/svg">
<circle cx="30" cy="30" r="30" fill="#FF385C"/>
<path d="M41.25 41.25L33.75 33.75M36.25 27.5C36.25 28.6491 36.0237 29.7869 35.5839 30.8485C35.1442 31.9101 34.4997 32.8747 33.6872 33.6872C32.8747 34.4997 31.9101 35.1442 30.8485 35.5839C29.7869 36.0237 28.6491 36.25 27.5 36.25C26.3509 36.25 25.2131 36.0237 24.1515 35.5839C23.0899 35.1442 22.1253 34.4997 21.3128 33.6872C20.5003 32.8747 19.8558 31.9101 19.4161 30.8485C18.9763 29.7869 18.75 28.6491 18.75 27.5C18.75 25.1794 19.6719 22.9538 21.3128 21.3128C22.9538 19.6719 25.1794 18.75 27.5 18.75C29.8206 18.75 32.0462 19.6719 33.6872 21.3128C35.3281 22.9538 36.25 25.1794 36.25 27.5Z" stroke="white" stroke-width="2" stroke-linecap="round" stroke-linejoin="round"/>
</svg>
